<svg width="66" height="60" xmlns="http://www.w3.org/2000/svg" xmlns:xlink="http://www.w3.org/1999/xlink"><svg width="24" height="21" fill="none" id="arrow" xmlns="http://www.w3.org/2000/svg"><mask id="aa" style="mask-type:luminance" maskUnits="userSpaceOnUse" x="4" y="0" width="16" height="16"><path fill-rule="evenodd" clip-rule="evenodd" d="M20 7H7.83l5.59-5.59L12 0 4 8l8 8 1.41-1.41L7.83 9H20V7z" fill="#fff"/></mask><g mask="url(#aa)"><path fill="#4D4D4D" d="M-1-5h26v26H-1z"/></g></svg><svg width="21" height="20" fill="none" id="clock" y="21" xmlns="http://www.w3.org/2000/svg"><mask id="ba" style="mask-type:luminance" maskUnits="userSpaceOnUse" x="0" y="0" width="21" height="20"><path fill-rule="evenodd" clip-rule="evenodd" d="M10.5 0C4.977 0 .459 4.5.459 10S4.977 20 10.5 20c5.523 0 10.041-4.5 10.041-10S16.023 0 10.5 0zm4.217 14.2L9.496 11V5h1.506v5.2l4.518 2.7-.803 1.3z" fill="#fff"/></mask><g mask="url(#ba)"><path fill="#fff" fill-opacity=".5" d="M-2.553-3h26.107v26H-2.553z"/></g></svg><svg width="20" height="20" fill="none" id="commented" x="21" y="21" xmlns="http://www.w3.org/2000/svg"><mask id="ca" style="mask-type:luminance" maskUnits="userSpaceOnUse" x="0" y="0" width="20" height="20"><path fill-rule="evenodd" clip-rule="evenodd" d="M19 4h-2v9H4v2c0 .55.45 1 1 1h11l4 4V5c0-.55-.45-1-1-1zm-4 6V1c0-.55-.45-1-1-1H1C.45 0 0 .45 0 1v14l4-4h10c.55 0 1-.45 1-1z" fill="#fff"/></mask><g mask="url(#ca)"><path fill="#fff" d="M-3-3h26v26H-3z"/></g></svg><svg width="18" height="18" fill="none" id="location" x="20" y="41" xmlns="http://www.w3.org/2000/svg"><mask id="da" style="mask-type:luminance" maskUnits="userSpaceOnUse" x="0" y="0" width="18" height="18"><path fill-rule="evenodd" clip-rule="evenodd" d="M18 0L0 7.53v.98l6.84 2.65L9.48 18h.98L18 0z" fill="#fff"/></mask><g mask="url(#da)"><path fill="#fff" fill-opacity=".5" d="M-4-4h26v26H-4z"/></g></svg><svg width="18" height="18" fill="none" id="phone" x="38" y="41" xmlns="http://www.w3.org/2000/svg"><mask id="ea" style="mask-type:luminance" maskUnits="userSpaceOnUse" x="0" y="0" width="18" height="18"><path fill-rule="evenodd" clip-rule="evenodd" d="M3.62 7.79c1.44 2.83 3.76 5.14 6.59 6.59l2.2-2.2c.27-.27.67-.36 1.02-.24 1.12.37 2.33.57 3.57.57.55 0 1 .45 1 1V17c0 .55-.45 1-1 1C7.61 18 0 10.39 0 1c0-.55.45-1 1-1h3.5c.55 0 1 .45 1 1 0 1.25.2 2.45.57 3.57.11.35.03.74-.25 1.02l-2.2 2.2z" fill="#fff"/></mask><g mask="url(#ea)"><path fill="#fff" fill-opacity=".5" d="M-4-4h26v26H-4z"/></g></svg><svg width="20" height="19" fill="none" id="raiting-star_empty" x="46" xmlns="http://www.w3.org/2000/svg"><mask id="fa" style="mask-type:luminance" maskUnits="userSpaceOnUse" x="0" y="0" width="20" height="19"><path fill-rule="evenodd" clip-rule="evenodd" d="M20 7.24l-7.19-.62L10 0 7.19 6.63 0 7.24l5.46 4.73L3.82 19 10 15.27 16.18 19l-1.63-7.03L20 7.24zM10 13.4l-3.76 2.27 1-4.28-3.32-2.88 4.38-.38L10 4.1l1.71 4.04 4.38.38-3.32 2.88 1 4.28L10 13.4z" fill="#fff"/></mask><g mask="url(#fa)"><path fill="#4D4D4D" d="M-3-3h26v26H-3z"/></g></svg><svg width="20" height="19" fill="none" id="raiting-star_full" x="46" y="19" xmlns="http://www.w3.org/2000/svg"><mask id="ga" style="mask-type:luminance" maskUnits="userSpaceOnUse" x="0" y="0" width="20" height="19"><path fill-rule="evenodd" clip-rule="evenodd" d="M10 15.27L16.18 19l-1.64-7.03L20 7.24l-7.19-.61L10 0 7.19 6.63 0 7.24l5.46 4.73L3.82 19 10 15.27z" fill="#fff"/></mask><g mask="url(#ga)"><path fill="#4D4D4D" d="M-3-3h26v26H-3z"/></g></svg><svg width="20" height="19" fill="none" id="raiting-star_half" y="41" xmlns="http://www.w3.org/2000/svg"><mask id="ha" style="mask-type:luminance" maskUnits="userSpaceOnUse" x="0" y="0" width="20" height="19"><path fill-rule="evenodd" clip-rule="evenodd" d="M20 7.24l-7.19-.62L10 0 7.19 6.63 0 7.24l5.46 4.73L3.82 19 10 15.27 16.18 19l-1.63-7.03L20 7.24zM10 13.4V4.1l1.71 4.04 4.38.38-3.32 2.88 1 4.28L10 13.4z" fill="#fff"/></mask><g mask="url(#ha)"><path fill="#4D4D4D" d="M-3-3h26v26H-3z"/></g></svg><svg width="22" height="16" fill="none" id="watched" x="24" xmlns="http://www.w3.org/2000/svg"><mask id="ia" style="mask-type:luminance" maskUnits="userSpaceOnUse" x="0" y="0" width="22" height="16"><path fill-rule="evenodd" clip-rule="evenodd" d="M11 .5C6 .5 1.73 3.61 0 8c1.73 4.39 6 7.5 11 7.5s9.27-3.11 11-7.5C20.27 3.61 16 .5 11 .5zM11 13c-2.76 0-5-2.24-5-5s2.24-5 5-5 5 2.24 5 5-2.24 5-5 5zm0-8C9.34 5 8 6.34 8 8s1.34 3 3 3 3-1.34 3-3-1.34-3-3-3z" fill="#fff"/></mask><g mask="url(#ia)"><path fill="#fff" d="M-2-5h26v26H-2z"/></g></svg></svg>