<svg viewBox="0 0 28 28" xmlns="http://www.w3.org/2000/svg" xmlns:xlink="http://www.w3.org/1999/xlink"><style>:root&gt;svg{display:none}:root&gt;svg:target{display:block}</style><svg fill="none" viewBox="0 0 24 21" id="arrow" xmlns="http://www.w3.org/2000/svg"><mask id="aa" style="mask-type:luminance" maskUnits="userSpaceOnUse" x="4" y="0" width="16" height="16"><path fill-rule="evenodd" clip-rule="evenodd" d="M20 7H7.83l5.59-5.59L12 0 4 8l8 8 1.41-1.41L7.83 9H20V7z" fill="#fff"/></mask><g mask="url(#aa)"><path fill="#4D4D4D" d="M-1-5h26v26H-1z"/></g></svg><svg fill="none" viewBox="0 0 14 14" id="back-arrow" xmlns="http://www.w3.org/2000/svg"><mask id="ba" style="mask-type:luminance" maskUnits="userSpaceOnUse" x="0" y="0" width="14" height="14"><path fill-rule="evenodd" clip-rule="evenodd" d="M13.4 6.2H3.664l4.472-4.472L7 .6.6 7 7 13.4l1.128-1.128L3.664 7.8H13.4V6.2z" fill="#fff"/></mask><g mask="url(#ba)"><path fill="#fff" d="M-3.4-3.4h20.8v20.8H-3.4z"/></g></svg><svg fill="none" viewBox="0 0 21 20" id="clock" xmlns="http://www.w3.org/2000/svg"><mask id="ca" style="mask-type:luminance" maskUnits="userSpaceOnUse" x="0" y="0" width="21" height="20"><path fill-rule="evenodd" clip-rule="evenodd" d="M10.5 0C4.977 0 .459 4.5.459 10S4.977 20 10.5 20c5.523 0 10.041-4.5 10.041-10S16.023 0 10.5 0zm4.217 14.2L9.496 11V5h1.506v5.2l4.518 2.7-.803 1.3z" fill="#fff"/></mask><g mask="url(#ca)"><path fill="#fff" fill-opacity=".5" d="M-2.553-3h26.107v26H-2.553z"/></g></svg><svg fill="none" viewBox="0 0 28 28" id="facebook_logo" xmlns="http://www.w3.org/2000/svg"><mask id="da" style="mask-type:luminance" maskUnits="userSpaceOnUse" x="10" y="5" width="9" height="18"><path fill-rule="evenodd" clip-rule="evenodd" d="M15.719 22.4v-7.663h2.48l.368-2.985h-2.848V9.844c0-.863.23-1.454 1.424-1.454h1.524V5.717c-.263-.039-1.168-.117-2.217-.117-2.199 0-3.698 1.395-3.698 3.952v2.206h-2.485v2.985h2.485V22.4h2.967z" fill="#fff"/></mask><g mask="url(#da)"><path fill="#737373" d="M1.867 1.867h24.267v24.267H1.867z"/></g></svg><svg fill="none" viewBox="0 0 28 28" id="instagram_logo" xmlns="http://www.w3.org/2000/svg"><mask id="ea" style="mask-type:luminance" maskUnits="userSpaceOnUse" x="6" y="6" width="16" height="16"><path fill-rule="evenodd" clip-rule="evenodd" d="M21.074 9.107a3.649 3.649 0 00-.86-1.321 3.649 3.649 0 00-1.32-.86c-.474-.185-1.022-.312-1.813-.346l-.013-.001c-.786-.034-1.048-.046-3.068-.046-2.031 0-2.285.006-3.081.047-.797.034-1.339.161-1.812.346a3.65 3.65 0 00-1.322.86 3.65 3.65 0 00-.86 1.321c-.184.473-.31 1.021-.346 1.812v.013c-.034.786-.046 1.048-.046 3.068 0 2.031.006 2.285.046 3.081.035.797.162 1.34.347 1.812.19.49.444.906.86 1.322.415.415.83.669 1.32.86.474.184 1.022.311 1.813.346h.013c.786.034 1.048.046 3.068.046 2.031 0 2.285-.006 3.081-.046.797-.035 1.339-.162 1.812-.347.49-.19.906-.444 1.322-.86.415-.415.669-.83.86-1.32.184-.474.31-1.022.346-1.813v-.013c.034-.786.046-1.048.046-3.068 0-2.031-.006-2.285-.046-3.081-.035-.796-.162-1.339-.347-1.812zm-1.516 7.65c-.032.665-.143 1.03-.238 1.266a2.114 2.114 0 01-.511.786 2.136 2.136 0 01-.786.512c-.242.095-.6.205-1.265.237l-.034.001c-.696.03-.929.041-2.724.041-1.825 0-2.04-.005-2.758-.042-.664-.032-1.028-.142-1.265-.237a2.113 2.113 0 01-.786-.512 2.137 2.137 0 01-.512-.786c-.094-.242-.205-.6-.237-1.265l-.001-.029c-.03-.7-.041-.934-.041-2.729 0-1.82.005-2.04.042-2.758.032-.664.143-1.028.237-1.265.122-.317.275-.549.512-.786s.464-.385.786-.511c.242-.095.6-.206 1.265-.238h.029c.7-.032.934-.042 2.729-.042 1.82 0 2.04.005 2.758.042.664.032 1.028.143 1.265.238.317.12.549.274.786.511s.385.464.511.786c.095.242.206.6.238 1.265l.001.029c.03.7.041.934.041 2.73 0 1.801-.01 2.035-.041 2.737l-.001.02zm-.891-6.49a.933.933 0 11-1.867 0 .933.933 0 011.867 0zm-4.667 0A3.735 3.735 0 0010.267 14 3.735 3.735 0 0014 17.733 3.735 3.735 0 0017.733 14 3.735 3.735 0 0014 10.267zM12.133 14a1.867 1.867 0 103.735 0 1.867 1.867 0 00-3.735 0z" fill="#fff"/></mask><g mask="url(#ea)"><path fill="#737373" d="M1.867 1.867h24.267v24.267H1.867z"/></g></svg><svg fill="none" viewBox="0 0 24 24" id="link" xmlns="http://www.w3.org/2000/svg"><mask id="fa" style="mask-type:luminance" maskUnits="userSpaceOnUse" x="4" y="5" width="16" height="13"><path fill-rule="evenodd" clip-rule="evenodd" d="M13.6 8.8V5.6l5.6 5.6-5.6 5.6v-3.28c-4 0-6.8 1.28-8.8 4.08.8-4 3.2-8 8.8-8.8z" fill="#fff"/></mask><g mask="url(#fa)"><path fill="#fff" d="M1.6 1.6h20.8v20.8H1.6z"/></g></svg><svg fill="none" viewBox="0 0 18 18" id="location" xmlns="http://www.w3.org/2000/svg"><mask id="ga" style="mask-type:luminance" maskUnits="userSpaceOnUse" x="0" y="0" width="18" height="18"><path fill-rule="evenodd" clip-rule="evenodd" d="M18 0L0 7.53v.98l6.84 2.65L9.48 18h.98L18 0z" fill="#fff"/></mask><g mask="url(#ga)"><path fill="#fff" fill-opacity=".5" d="M-4-4h26v26H-4z"/></g></svg><svg fill="none" viewBox="0 0 18 18" id="phone" xmlns="http://www.w3.org/2000/svg"><mask id="ha" style="mask-type:luminance" maskUnits="userSpaceOnUse" x="0" y="0" width="18" height="18"><path fill-rule="evenodd" clip-rule="evenodd" d="M3.62 7.79c1.44 2.83 3.76 5.14 6.59 6.59l2.2-2.2c.27-.27.67-.36 1.02-.24 1.12.37 2.33.57 3.57.57.55 0 1 .45 1 1V17c0 .55-.45 1-1 1C7.61 18 0 10.39 0 1c0-.55.45-1 1-1h3.5c.55 0 1 .45 1 1 0 1.25.2 2.45.57 3.57.11.35.03.74-.25 1.02l-2.2 2.2z" fill="#fff"/></mask><g mask="url(#ha)"><path fill="#fff" fill-opacity=".5" d="M-4-4h26v26H-4z"/></g></svg><svg fill="none" viewBox="0 0 20 19" id="raiting-star_empty" xmlns="http://www.w3.org/2000/svg"><mask id="ia" style="mask-type:luminance" maskUnits="userSpaceOnUse" x="0" y="0" width="20" height="19"><path fill-rule="evenodd" clip-rule="evenodd" d="M20 7.24l-7.19-.62L10 0 7.19 6.63 0 7.24l5.46 4.73L3.82 19 10 15.27 16.18 19l-1.63-7.03L20 7.24zM10 13.4l-3.76 2.27 1-4.28-3.32-2.88 4.38-.38L10 4.1l1.71 4.04 4.38.38-3.32 2.88 1 4.28L10 13.4z" fill="#fff"/></mask><g mask="url(#ia)"><path fill="#4D4D4D" d="M-3-3h26v26H-3z"/></g></svg><svg fill="none" viewBox="0 0 20 19" id="raiting-star_full" xmlns="http://www.w3.org/2000/svg"><mask id="ja" style="mask-type:luminance" maskUnits="userSpaceOnUse" x="0" y="0" width="20" height="19"><path fill-rule="evenodd" clip-rule="evenodd" d="M10 15.27L16.18 19l-1.64-7.03L20 7.24l-7.19-.61L10 0 7.19 6.63 0 7.24l5.46 4.73L3.82 19 10 15.27z" fill="#fff"/></mask><g mask="url(#ja)"><path fill="#4D4D4D" d="M-3-3h26v26H-3z"/></g></svg><svg fill="none" viewBox="0 0 20 19" id="raiting-star_half" xmlns="http://www.w3.org/2000/svg"><mask id="ka" style="mask-type:luminance" maskUnits="userSpaceOnUse" x="0" y="0" width="20" height="19"><path fill-rule="evenodd" clip-rule="evenodd" d="M20 7.24l-7.19-.62L10 0 7.19 6.63 0 7.24l5.46 4.73L3.82 19 10 15.27 16.18 19l-1.63-7.03L20 7.24zM10 13.4V4.1l1.71 4.04 4.38.38-3.32 2.88 1 4.28L10 13.4z" fill="#fff"/></mask><g mask="url(#ka)"><path fill="#4D4D4D" d="M-3-3h26v26H-3z"/></g></svg><svg fill="none" viewBox="0 0 28 28" id="twitter_logo" xmlns="http://www.w3.org/2000/svg"><mask id="la" style="mask-type:luminance" maskUnits="userSpaceOnUse" x="5" y="7" width="18" height="15"><path fill-rule="evenodd" clip-rule="evenodd" d="M22.4 9.123a6.71 6.71 0 01-1.98.557 3.533 3.533 0 001.516-1.955 6.8 6.8 0 01-2.188.857 3.406 3.406 0 00-2.517-1.115c-1.904 0-3.446 1.582-3.446 3.534 0 .276.03.547.088.805-2.864-.147-5.404-1.554-7.104-3.693a3.592 3.592 0 00-.466 1.777c0 1.227.608 2.308 1.532 2.942a3.37 3.37 0 01-1.56-.442v.044c0 1.713 1.187 3.142 2.764 3.466a3.39 3.39 0 01-1.556.061c.438 1.404 1.712 2.426 3.22 2.455A6.806 6.806 0 015.6 19.88a9.589 9.589 0 005.283 1.587c6.34 0 9.807-5.386 9.807-10.056 0-.153-.004-.306-.01-.458a7.094 7.094 0 001.72-1.83z" fill="#fff"/></mask><g mask="url(#la)"><path fill="#737373" d="M2 2h24.267v24.267H2z"/></g></svg></svg>